dummy_motion.mot																							
nRows=68																							
nColumns=24																							
name dummy_motion.mot																							
datacolumns 24																							
datarows 68																							
range 12.51 13.18																							
endheader																							
time	lower_torso_RX	lower_torso_RY	lower_torso_RZ	lower_torso_TX	lower_torso_TY	lower_torso_TZ	hip_flex_r	hip_add_r	hip_rot_r	knee_flex_r	ankle_flex_r	hip_flex_l	hip_add_l	hip_rot_l	knee_flex_l	ankle_flex_l	lumbar_pitch	lumbar_roll	lumbar_yaw	subt_angle_r	subt_angle_l	toe_angle_r	toe_angle_l
12.51	0	0	0	0	0	0	12.38158729	-29.11310563	-20.99906012	62.75130531	47.63762629	12.38158729	-29.11310563	-20.99906012	62.75130531	47.63762629	0	0	0	-13.93933178	-13.93933178	0	0
12.52	0	0	0	0	0	0	68.59806601	-40.23271778	21.26765633	35.8510304	6.192640037	68.59806601	-40.23271778	21.26765633	35.8510304	6.192640037	0	0	0	-37.97435755	-37.97435755	0	0
12.53	0	0	0	0	0	0	42.21058907	-48.70974719	-7.073460324	83.29913481	33.63178723	42.21058907	-48.70974719	-7.073460324	83.29913481	33.63178723	0	0	0	-9.044900553	-9.044900553	0	0
12.54	0	0	0	0	0	0	93.35047928	16.84250577	-18.49444844	43.9373865	-12.48239805	93.35047928	16.84250577	-18.49444844	43.9373865	-12.48239805	0	0	0	-37.10807161	-37.10807161	0	0
12.55	0	0	0	0	0	0	21.86857203	38.49098195	-25.07620883	93.71417728	34.17676668	21.86857203	38.49098195	-25.07620883	93.71417728	34.17676668	0	0	0	-30.67600772	-30.67600772	0	0
12.56	0	0	0	0	0	0	83.64003371	-19.19205607	-15.09229994	54.86467778	-15.82828442	83.64003371	-19.19205607	-15.09229994	54.86467778	-15.82828442	0	0	0	-36.3852903	-36.3852903	0	0
12.57	0	0	0	0	0	0	40.99812954	-36.70010202	18.20915856	88.70494129	-26.92856398	40.99812954	-36.70010202	18.20915856	88.70494129	-26.92856398	0	0	0	-10.11655721	-10.11655721	0	0
12.58	0	0	0	0	0	0	48.32591895	5.636631321	33.3297062	21.58189851	-7.958023538	48.32591895	5.636631321	33.3297062	21.58189851	-7.958023538	0	0	0	11.96505112	11.96505112	0	0
12.59	0	0	0	0	0	0	1.747005279	-35.97696584	25.11221426	45.04992412	44.820318	1.747005279	-35.97696584	25.11221426	45.04992412	44.820318	0	0	0	10.44656324	10.44656324	0	0
12.6	0	0	0	0	0	0	91.13039363	24.43731091	-12.91509485	32.1876096	-16.73798107	91.13039363	24.43731091	-12.91509485	32.1876096	-16.73798107	0	0	0	-31.0319083	-31.0319083	0	0
12.61	0	0	0	0	0	0	56.57179069	-32.59126646	14.84120576	14.7458239	7.267771251	56.57179069	-32.59126646	14.84120576	14.7458239	7.267771251	0	0	0	0.315214137	0.315214137	0	0
12.62	0	0	0	0	0	0	79.88617374	3.021542288	37.7312438	49.60725721	41.79027848	79.88617374	3.021542288	37.7312438	49.60725721	41.79027848	0	0	0	10.9934837	10.9934837	0	0
12.63	0	0	0	0	0	0	61.5193472	24.71388003	19.75082971	102.1492941	34.1025341	61.5193472	24.71388003	19.75082971	102.1492941	34.1025341	0	0	0	-14.11342774	-14.11342774	0	0
12.64	0	0	0	0	0	0	39.07863616	4.768638244	19.66254157	31.97318971	-23.33559962	39.07863616	4.768638244	19.66254157	31.97318971	-23.33559962	0	0	0	-25.44890526	-25.44890526	0	0
12.65	0	0	0	0	0	0	88.16246154	-9.026569137	5.574325901	9.197174551	-11.57637043	88.16246154	-9.026569137	5.574325901	9.197174551	-11.57637043	0	0	0	14.98103344	14.98103344	0	0
12.66	0	0	0	0	0	0	93.39862576	-43.44151977	-18.1523987	70.21405275	-12.6078245	93.39862576	-43.44151977	-18.1523987	70.21405275	-12.6078245	0	0	0	-25.24913504	-25.24913504	0	0
12.67	0	0	0	0	0	0	17.82535925	-24.78396577	-6.858041293	102.2959287	34.35464974	17.82535925	-24.78396577	-6.858041293	102.2959287	34.35464974	0	0	0	-27.45982777	-27.45982777	0	0
12.68	0	0	0	0	0	0	-2.456732208	18.32124768	-37.37162203	57.96756905	11.92953876	-2.456732208	18.32124768	-37.37162203	57.96756905	11.92953876	0	0	0	-33.0181777	-33.0181777	0	0
12.69	0	0	0	0	0	0	-2.888359579	9.059541972	-39.06790557	96.87731519	-25.85430412	-2.888359579	9.059541972	-39.06790557	96.87731519	-25.85430412	0	0	0	-38.79136241	-38.79136241	0	0
12.7	0	0	0	0	0	0	47.49548657	-8.340635388	20.49453212	49.56480842	-6.305426914	47.49548657	-8.340635388	20.49453212	49.56480842	-6.305426914	0	0	0	1.978885267	1.978885267	0	0
12.71	0	0	0	0	0	0	50.59339414	33.06615695	4.146669698	39.04610499	-0.928142672	50.59339414	33.06615695	4.146669698	39.04610499	-0.928142672	0	0	0	12.0427166	12.0427166	0	0
12.72	0	0	0	0	0	0	39.60012479	-44.34603568	4.092898088	74.01801565	22.82096197	39.60012479	-44.34603568	4.092898088	74.01801565	22.82096197	0	0	0	1.140832573	1.140832573	0	0
12.73	0	0	0	0	0	0	70.36920555	-38.64192911	11.91638162	34.64572411	-9.297073356	70.36920555	-38.64192911	11.91638162	34.64572411	-9.297073356	0	0	0	-11.57415829	-11.57415829	0	0
12.74	0	0	0	0	0	0	6.85587112	26.11981256	5.040491364	26.48422879	37.37002902	6.85587112	26.11981256	5.040491364	26.48422879	37.37002902	0	0	0	7.854587589	7.854587589	0	0
12.75	0	0	0	0	0	0	85.07609387	-38.28294553	22.8199896	5.694613398	-10.64341134	85.07609387	-38.28294553	22.8199896	5.694613398	-10.64341134	0	0	0	-4.352321261	-4.352321261	0	0
12.76	0	0	0	0	0	0	-6.709536003	35.764946	-38.29126782	86.10153027	19.7528349	-6.709536003	35.764946	-38.29126782	86.10153027	19.7528349	0	0	0	-5.085808725	-5.085808725	0	0
12.77	0	0	0	0	0	0	18.19081442	7.154611538	18.15551703	31.22749015	0.909143236	18.19081442	7.154611538	18.15551703	31.22749015	0.909143236	0	0	0	-4.013221058	-4.013221058	0	0
12.78	0	0	0	0	0	0	71.7558465	-31.58776638	4.61732835	20.61459368	34.44935535	71.7558465	-31.58776638	4.61732835	20.61459368	34.44935535	0	0	0	-39.33411671	-39.33411671	0	0
12.79	0	0	0	0	0	0	46.01412121	-27.51238699	-6.708507994	42.70571137	-5.989121006	46.01412121	-27.51238699	-6.708507994	42.70571137	-5.989121006	0	0	0	-10.15178512	-10.15178512	0	0
12.8	0	0	0	0	0	0	-2.180625482	2.604386771	-20.66787217	70.62152794	11.32522143	-2.180625482	2.604386771	-20.66787217	70.62152794	11.32522143	0	0	0	-39.73233158	-39.73233158	0	0
12.81	0	0	0	0	0	0	71.43083813	5.465055548	39.24423569	5.73816613	-3.766915392	71.43083813	5.465055548	39.24423569	5.73816613	-3.766915392	0	0	0	-30.99944854	-30.99944854	0	0
12.82	0	0	0	0	0	0	3.962584083	7.850909811	-10.90120536	75.69960279	-13.14215228	3.962584083	7.850909811	-10.90120536	75.69960279	-13.14215228	0	0	0	-12.82376185	-12.82376185	0	0
12.83	0	0	0	0	0	0	69.1485434	-23.67529456	-15.95896525	15.67454263	-14.63628905	69.1485434	-23.67529456	-15.95896525	15.67454263	-14.63628905	0	0	0	-3.69098602	-3.69098602	0	0
12.84	0	0	0	0	0	0	30.71272824	-31.7358798	-39.84247104	108.5465897	-27.08894992	30.71272824	-31.7358798	-39.84247104	108.5465897	-27.08894992	0	0	0	0.52194362	0.52194362	0	0
12.85	0	0	0	0	0	0	60.55162391	19.1068832	8.048029204	82.44796704	-12.47743816	60.55162391	19.1068832	8.048029204	82.44796704	-12.47743816	0	0	0	-39.07144313	-39.07144313	0	0
12.86	0	0	0	0	0	0	22.2379296	35.77454889	-33.36776727	77.89304822	-27.5081576	22.2379296	35.77454889	-33.36776727	77.89304822	-27.5081576	0	0	0	-32.07261812	-32.07261812	0	0
12.87	0	0	0	0	0	0	2.276648995	10.9947894	-37.71898298	117.3637204	18.4791013	2.276648995	10.9947894	-37.71898298	117.3637204	18.4791013	0	0	0	17.32488736	17.32488736	0	0
12.88	0	0	0	0	0	0	70.70369585	3.781450925	23.86890662	52.06942712	-7.489237904	70.70369585	3.781450925	23.86890662	52.06942712	-7.489237904	0	0	0	18.44346403	18.44346403	0	0
12.89	0	0	0	0	0	0	41.75354418	7.40141882	-23.57794247	12.28381297	26.52218216	41.75354418	7.40141882	-23.57794247	12.28381297	26.52218216	0	0	0	5.271744169	5.271744169	0	0
12.9	0	0	0	0	0	0	46.23272768	-25.14354162	-14.91966756	71.92164877	21.37695916	46.23272768	-25.14354162	-14.91966756	71.92164877	21.37695916	0	0	0	3.416628502	3.416628502	0	0
12.91	0	0	0	0	0	0	49.62007804	-34.72438282	-5.356641401	94.33798175	45.53652989	49.62007804	-34.72438282	-5.356641401	94.33798175	45.53652989	0	0	0	-3.830586952	-3.830586952	0	0
12.92	0	0	0	0	0	0	4.018999573	11.74456783	-37.39109501	11.86509498	-17.09758485	4.018999573	11.74456783	-37.39109501	11.86509498	-17.09758485	0	0	0	-18.71592949	-18.71592949	0	0
12.93	0	0	0	0	0	0	29.00887084	38.21138774	-23.67313216	1.472395302	27.0101582	29.00887084	38.21138774	-23.67313216	1.472395302	27.0101582	0	0	0	-30.80899823	-30.80899823	0	0
12.94	0	0	0	0	0	0	-6.869208269	21.7700383	-16.51796421	-4.236103196	29.4873405	-6.869208269	21.7700383	-16.51796421	-4.236103196	29.4873405	0	0	0	-17.14385977	-17.14385977	0	0
12.95	0	0	0	0	0	0	72.65393783	9.681697452	39.65851858	51.09875074	-24.6141794	72.65393783	9.681697452	39.65851858	51.09875074	-24.6141794	0	0	0	-5.990916252	-5.990916252	0	0
12.96	0	0	0	0	0	0	82.83887021	19.56802302	26.6056827	89.23346526	43.9686352	82.83887021	19.56802302	26.6056827	89.23346526	43.9686352	0	0	0	1.550902569	1.550902569	0	0
12.97	0	0	0	0	0	0	27.55805509	-31.98128262	-0.887964489	25.23520897	23.61420378	27.55805509	-31.98128262	-0.887964489	25.23520897	23.61420378	0	0	0	7.309287301	7.309287301	0	0
12.98	0	0	0	0	0	0	82.13410834	9.617377122	39.79205183	82.22135362	-26.74475328	82.13410834	9.617377122	39.79205183	82.22135362	-26.74475328	0	0	0	-2.212234856	-2.212234856	0	0
12.99	0	0	0	0	0	0	16.39690121	9.488944341	-27.57038416	19.1947136	6.765453501	16.39690121	9.488944341	-27.57038416	19.1947136	6.765453501	0	0	0	-10.68161042	-10.68161042	0	0
13	0	0	0	0	0	0	24.03565122	11.4146041	-8.44684453	-5.458061757	36.67535082	24.03565122	11.4146041	-8.44684453	-5.458061757	36.67535082	0	0	0	5.574306448	5.574306448	0	0
13.01	0	0	0	0	0	0	12.66671463	26.37860342	38.64542007	16.36660302	33.0523455	12.66671463	26.37860342	38.64542007	16.36660302	33.0523455	0	0	0	18.94267581	18.94267581	0	0
13.02	0	0	0	0	0	0	29.7679079	39.9770242	39.52105311	38.82457663	-13.98861872	29.7679079	39.9770242	39.52105311	38.82457663	-13.98861872	0	0	0	-13.30018088	-13.30018088	0	0
13.03	0	0	0	0	0	0	89.91947415	-22.75527474	-18.47787897	69.70235789	6.665166645	89.91947415	-22.75527474	-18.47787897	69.70235789	6.665166645	0	0	0	-14.63536286	-14.63536286	0	0
13.04	0	0	0	0	0	0	25.54776903	25.54174686	33.70364432	54.90467655	19.62149355	25.54776903	25.54174686	33.70364432	54.90467655	19.62149355	0	0	0	-6.356535943	-6.356535943	0	0
13.05	0	0	0	0	0	0	29.06291037	-14.18201462	-36.61301721	-9.177844242	31.30661124	29.06291037	-14.18201462	-36.61301721	-9.177844242	31.30661124	0	0	0	7.157729514	7.157729514	0	0
13.06	0	0	0	0	0	0	63.81015143	-39.04282245	-1.326939648	74.76566464	46.4311595	63.81015143	-39.04282245	-1.326939648	74.76566464	46.4311595	0	0	0	18.36018564	18.36018564	0	0
13.07	0	0	0	0	0	0	4.205195986	8.950333872	7.17252134	78.63807383	33.06554894	4.205195986	8.950333872	7.17252134	78.63807383	33.06554894	0	0	0	-0.734069032	-0.734069032	0	0
13.08	0	0	0	0	0	0	57.14399124	31.60600431	-37.33277799	93.76536643	17.37526863	57.14399124	31.60600431	-37.33277799	93.76536643	17.37526863	0	0	0	-13.81718246	-13.81718246	0	0
13.09	0	0	0	0	0	0	50.71750116	-14.30671728	34.63418418	97.47468486	-7.653489582	50.71750116	-14.30671728	34.63418418	97.47468486	-7.653489582	0	0	0	-28.54986686	-28.54986686	0	0
13.1	0	0	0	0	0	0	-0.3195062	15.01355794	24.99368075	98.24509126	4.68851956	-0.3195062	15.01355794	24.99368075	98.24509126	4.68851956	0	0	0	-22.49954797	-22.49954797	0	0
13.11	0	0	0	0	0	0	3.301658846	-25.68543496	-31.88265795	70.36529748	41.0490213	3.301658846	-25.68543496	-31.88265795	70.36529748	41.0490213	0	0	0	8.038842384	8.038842384	0	0
13.12	0	0	0	0	0	0	45.27825291	-25.30547755	-16.57931826	76.41806021	-17.49515516	45.27825291	-25.30547755	-16.57931826	76.41806021	-17.49515516	0	0	0	-2.358219391	-2.358219391	0	0
13.13	0	0	0	0	0	0	28.13334046	-12.8501608	-34.06992157	65.25486005	3.603186357	28.13334046	-12.8501608	-34.06992157	65.25486005	3.603186357	0	0	0	-7.429457148	-7.429457148	0	0
13.14	0	0	0	0	0	0	46.74015332	30.54974482	23.27922942	109.4292536	39.03946832	46.74015332	30.54974482	23.27922942	109.4292536	39.03946832	0	0	0	9.832299504	9.832299504	0	0
13.15	0	0	0	0	0	0	56.06494227	-0.304361221	16.57817313	96.61697405	-16.38253026	56.06494227	-0.304361221	16.57817313	96.61697405	-16.38253026	0	0	0	-18.92859554	-18.92859554	0	0
13.16	0	0	0	0	0	0	18.86555007	-6.577742545	23.32690032	103.0917235	17.8507993	18.86555007	-6.577742545	23.32690032	103.0917235	17.8507993	0	0	0	-33.14419536	-33.14419536	0	0
13.17	0	0	0	0	0	0	48.11489591	-34.96264821	29.01622264	72.21111744	-4.197100708	48.11489591	-34.96264821	29.01622264	72.21111744	-4.197100708	0	0	0	-2.787050228	-2.787050228	0	0
13.18	0	0	0	0	0	0	33.91029802	-39.08187074	-7.117010308	113.8902854	32.10612576	33.91029802	-39.08187074	-7.117010308	113.8902854	32.10612576	0	0	0	-17.90386347	-17.90386347	0	0
